<svg xmlns="http://www.w3.org/2000/svg" viewBox="0 0 1730 572" role="img" aria-labelledby="title description">
  <title id="title">StrataMD</title>
  <desc id="description">The StrataMD folded S icon and wordmark inside a white pill.</desc>

  <defs>
    <radialGradient id="bg" cx="30%" cy="0%" r="100%">
      <stop offset="0" stop-color="#312a50"/>
      <stop offset="1" stop-color="#0a0810"/>
    </radialGradient>
    <linearGradient id="edge" x1="0" y1="0" x2="1" y2="1">
      <stop stop-color="#ff5c8a"/>
      <stop offset="1" stop-color="#9b5cff"/>
    </linearGradient>
    <mask id="layer-cutouts" maskUnits="userSpaceOnUse" maskContentUnits="userSpaceOnUse" x="0" y="0" width="380" height="470">
      <rect width="380" height="470" fill="#FFFFFF"/>
      <path fill="none" stroke="#000000" stroke-width="10" stroke-linecap="round" stroke-linejoin="round" d="m31 197 177 101q13 8 1 16l-65 37-92-55q-21-12-21-37Z"/>
      <path fill="none" stroke="#000000" stroke-width="10" stroke-linecap="round" stroke-linejoin="round" d="m31 288 148 86q22 14 45 3l124-66"/>
    </mask>
  </defs>

  <rect x="0" y="0" width="1730" height="572" rx="286" fill="#f4f0fe"/>

  <g transform="translate(40 30)">
    <rect x="20" y="20" width="472" height="472" rx="112" fill="url(#bg)" stroke="url(#edge)" stroke-width="10"/>

    <g transform="translate(95 47) scale(.85)">
      <g mask="url(#layer-cutouts)">
        <path fill="#9b5cff" d="M31 292 179 377q15 9 31 9 9 0 18-5l120-65v37q0 21-19 33l-109 64q-28 17-56 0L50 383q-19-11-19-35Z"/>
        <path fill="#ffb03a" d="m31 197 177 101q13 8 1 16l-65 37-92-55q-21-12-21-37Z"/>
        <path fill="#ff5c8a" d="M188 43h56v64q0 27 27 27h58q19 0 19 19v4q0 18-19 18H188q-15 0-21 7-5 7 8 14l147 66q26 12 26 35 0 15-22 26l-102 54q-22 11-45-3l-31-18q-7-4 0-9l54-24q11-7 13-17 1-8-10-14L57 212q-26-14-26-44 0-28 23-42l118-75q7-5 16-8Z"/>
        <path fill="#ff5c8a" d="m257 51 72 70h-57q-15 0-15-15Z"/>
      </g>
    </g>

    <!-- Noto Sans Bold converted to outlines, so the wordmark has no font dependency. -->
    <path fill="#090527" transform="translate(560 345) scale(.23 -.23)" d="M511 198Q511 103 442.5 46.5Q374-10 248-10Q135-10 46 33V174Q97 152 151.5 133.5Q206 115 260 115Q316 115 339.5 136.5Q363 158 363 191Q363 218 344.5 237Q326 256 295 272.5Q264 289 224 308Q199 320 170 336.5Q141 353 114.5 377.5Q88 402 71 437Q54 472 54 521Q54 617 119 670.5Q184 724 296 724Q352 724 402.5 711Q453 698 508 674L459 556Q410 576 371 587Q332 598 291 598Q248 598 225 578Q202 558 202 526Q202 488 236 466Q270 444 337 412Q392 386 430.5 358Q469 330 490 292Q511 254 511 198ZM847 109Q872 109 895 114Q918 119 941 126V15Q917 5 881.5-2.5Q846-10 804-10Q755-10 716.5 6Q678 22 655.5 61.5Q633 101 633 171V434H562V497L644 547 687 662H782V546H935V434H782V171Q782 140 800 124.5Q818 109 847 109ZM1336 556Q1351 556 1368 554Q1385 552 1396 550L1381 409Q1370 412 1355 413.5Q1340 415 1319 415Q1288 415 1257 402Q1226 389 1205.5 359Q1185 329 1185 277V0H1034V546H1149L1171 454H1178Q1202 496 1243.5 526Q1285 556 1336 556ZM1713 556Q1815 556 1869.5 507.5Q1924 459 1924 364V0H1819L1790 74H1786Q1750 30 1711.5 10Q1673-10 1604-10Q1532-10 1484 32Q1436 74 1436 161Q1436 246 1498 289.5Q1560 333 1683 338L1774 341V358Q1774 407 1751.5 426.5Q1729 446 1690 446Q1653 446 1614 434Q1575 422 1537 405L1493 508Q1536 530 1591.5 543Q1647 556 1713 556ZM1717 250Q1645 248 1617.5 227Q1590 206 1590 168Q1590 133 1609.5 116.5Q1629 100 1662 100Q1709 100 1741.5 128Q1774 156 1774 208V253ZM2291 109Q2316 109 2339 114Q2362 119 2385 126V15Q2361 5 2325.5-2.5Q2290-10 2248-10Q2199-10 2160.5 6Q2122 22 2099.5 61.5Q2077 101 2077 171V434H2006V497L2088 547 2131 662H2226V546H2379V434H2226V171Q2226 140 2244 124.5Q2262 109 2291 109ZM2722 556Q2824 556 2878.5 507.5Q2933 459 2933 364V0H2828L2799 74H2795Q2759 30 2720.5 10Q2682-10 2613-10Q2541-10 2493 32Q2445 74 2445 161Q2445 246 2507 289.5Q2569 333 2692 338L2783 341V358Q2783 407 2760.5 426.5Q2738 446 2699 446Q2662 446 2623 434Q2584 422 2546 405L2502 508Q2545 530 2600.5 543Q2656 556 2722 556ZM2726 250Q2654 248 2626.5 227Q2599 206 2599 168Q2599 133 2618.5 116.5Q2638 100 2671 100Q2718 100 2750.5 128Q2783 156 2783 208V253ZM3384 0 3212 560H3208Q3209 540 3211 500Q3213 460 3215 414.5Q3217 369 3217 332V0H3082V714H3288L3457 168H3460L3639 714H3845V0H3704V338Q3704 372 3705.5 416Q3707 460 3708.5 499.5Q3710 539 3711 559H3707L3523 0ZM4601 369Q4601 246 4555 164Q4509 82 4425 41Q4341 0 4226 0H4008V714H4244Q4412 714 4506.5 625.5Q4601 537 4601 369ZM4441 363Q4441 478 4390 533.5Q4339 589 4240 589H4161V126H4225Q4441 126 4441 363Z"/>
  </g>
</svg>
